%TF.GenerationSoftware,KiCad,Pcbnew,8.0.1*%
%TF.CreationDate,2024-04-11T22:43:04-04:00*%
%TF.ProjectId,DSPicPiHat,44535069-6350-4694-9861-742e6b696361,rev?*%
%TF.SameCoordinates,Original*%
%TF.FileFunction,Soldermask,Bot*%
%TF.FilePolarity,Negative*%
%FSLAX46Y46*%
G04 Gerber Fmt 4.6, Leading zero omitted, Abs format (unit mm)*
G04 Created by KiCad (PCBNEW 8.0.1) date 2024-04-11 22:43:04*
%MOMM*%
%LPD*%
G01*
G04 APERTURE LIST*
%ADD10R,1.700000X1.700000*%
%ADD11O,1.700000X1.700000*%
%ADD12R,1.600000X1.600000*%
%ADD13O,1.600000X1.600000*%
%ADD14C,0.900000*%
%ADD15C,4.700000*%
%ADD16C,0.650000*%
%ADD17O,2.100000X1.000000*%
%ADD18O,1.600000X1.000000*%
G04 APERTURE END LIST*
D10*
%TO.C,JP1*%
X59500000Y-29095000D03*
D11*
X59500000Y-31635000D03*
%TD*%
D10*
%TO.C,J4*%
X57875000Y-40425000D03*
D11*
X55335000Y-40425000D03*
X57875000Y-37885000D03*
X55335000Y-37885000D03*
X57875000Y-35345000D03*
X55335000Y-35345000D03*
%TD*%
D12*
%TO.C,SW2*%
X52432500Y-5900000D03*
D13*
X52432500Y-8440000D03*
X52432500Y-10980000D03*
X52432500Y-13520000D03*
X52432500Y-16060000D03*
X52432500Y-18600000D03*
X52432500Y-21140000D03*
X52432500Y-23680000D03*
X60052500Y-23680000D03*
X60052500Y-21140000D03*
X60052500Y-18600000D03*
X60052500Y-16060000D03*
X60052500Y-13520000D03*
X60052500Y-10980000D03*
X60052500Y-8440000D03*
X60052500Y-5900000D03*
%TD*%
D14*
%TO.C,SW1*%
X4670000Y-28500000D03*
X4670000Y-31500000D03*
%TD*%
D15*
%TO.C,H4*%
X58000000Y0D03*
%TD*%
D16*
%TO.C,J5*%
X600000Y-7610000D03*
X600000Y-13390000D03*
D17*
X1130000Y-6180000D03*
D18*
X-3050000Y-6180000D03*
D17*
X1130000Y-14820000D03*
D18*
X-3050000Y-14820000D03*
%TD*%
D15*
%TO.C,H1*%
X0Y0D03*
%TD*%
%TO.C,H2*%
X0Y-49000000D03*
%TD*%
D10*
%TO.C,J1*%
X44750000Y-4700000D03*
D11*
X42210000Y-4700000D03*
X39670000Y-4700000D03*
X37130000Y-4700000D03*
X34590000Y-4700000D03*
X32050000Y-4700000D03*
X29510000Y-4700000D03*
X26970000Y-4700000D03*
X24430000Y-4700000D03*
%TD*%
D15*
%TO.C,H3*%
X58000000Y-49000000D03*
%TD*%
D10*
%TO.C,J8*%
X4900000Y-1290000D03*
D11*
X4900000Y1250000D03*
X7440000Y-1290000D03*
X7440000Y1250000D03*
X9980000Y-1290000D03*
X9980000Y1250000D03*
X12520000Y-1290000D03*
X12520000Y1250000D03*
X15060000Y-1290000D03*
X15060000Y1250000D03*
X17600000Y-1290000D03*
X17600000Y1250000D03*
X20140000Y-1290000D03*
X20140000Y1250000D03*
X22680000Y-1290000D03*
X22680000Y1250000D03*
X25220000Y-1290000D03*
X25220000Y1250000D03*
X27760000Y-1290000D03*
X27760000Y1250000D03*
X30300000Y-1290000D03*
X30300000Y1250000D03*
X32840000Y-1290000D03*
X32840000Y1250000D03*
X35380000Y-1290000D03*
X35380000Y1250000D03*
X37920000Y-1290000D03*
X37920000Y1250000D03*
X40460000Y-1290000D03*
X40460000Y1250000D03*
X43000000Y-1290000D03*
X43000000Y1250000D03*
X45540000Y-1290000D03*
X45540000Y1250000D03*
X48080000Y-1290000D03*
X48080000Y1250000D03*
X50620000Y-1290000D03*
X50620000Y1250000D03*
X53160000Y-1290000D03*
X53160000Y1250000D03*
%TD*%
M02*
