%TF.GenerationSoftware,KiCad,Pcbnew,8.0.1*%
%TF.CreationDate,2024-04-11T22:43:03-04:00*%
%TF.ProjectId,DSPicPiHat,44535069-6350-4694-9861-742e6b696361,rev?*%
%TF.SameCoordinates,Original*%
%TF.FileFunction,Paste,Top*%
%TF.FilePolarity,Positive*%
%FSLAX46Y46*%
G04 Gerber Fmt 4.6, Leading zero omitted, Abs format (unit mm)*
G04 Created by KiCad (PCBNEW 8.0.1) date 2024-04-11 22:43:03*
%MOMM*%
%LPD*%
G01*
G04 APERTURE LIST*
G04 Aperture macros list*
%AMRoundRect*
0 Rectangle with rounded corners*
0 $1 Rounding radius*
0 $2 $3 $4 $5 $6 $7 $8 $9 X,Y pos of 4 corners*
0 Add a 4 corners polygon primitive as box body*
4,1,4,$2,$3,$4,$5,$6,$7,$8,$9,$2,$3,0*
0 Add four circle primitives for the rounded corners*
1,1,$1+$1,$2,$3*
1,1,$1+$1,$4,$5*
1,1,$1+$1,$6,$7*
1,1,$1+$1,$8,$9*
0 Add four rect primitives between the rounded corners*
20,1,$1+$1,$2,$3,$4,$5,0*
20,1,$1+$1,$4,$5,$6,$7,0*
20,1,$1+$1,$6,$7,$8,$9,0*
20,1,$1+$1,$8,$9,$2,$3,0*%
G04 Aperture macros list end*
%ADD10RoundRect,0.250000X-1.050000X-0.550000X1.050000X-0.550000X1.050000X0.550000X-1.050000X0.550000X0*%
%ADD11R,0.300000X0.450000*%
%ADD12RoundRect,0.243750X-0.456250X0.243750X-0.456250X-0.243750X0.456250X-0.243750X0.456250X0.243750X0*%
%ADD13RoundRect,0.150000X0.150000X0.625000X-0.150000X0.625000X-0.150000X-0.625000X0.150000X-0.625000X0*%
%ADD14RoundRect,0.250000X0.350000X0.650000X-0.350000X0.650000X-0.350000X-0.650000X0.350000X-0.650000X0*%
%ADD15R,0.700000X0.700000*%
%ADD16RoundRect,0.250000X-0.262500X-0.450000X0.262500X-0.450000X0.262500X0.450000X-0.262500X0.450000X0*%
%ADD17RoundRect,0.250000X0.450000X-0.262500X0.450000X0.262500X-0.450000X0.262500X-0.450000X-0.262500X0*%
%ADD18RoundRect,0.250000X-0.450000X0.262500X-0.450000X-0.262500X0.450000X-0.262500X0.450000X0.262500X0*%
%ADD19R,1.200000X0.400000*%
%ADD20RoundRect,0.250000X0.250000X0.475000X-0.250000X0.475000X-0.250000X-0.475000X0.250000X-0.475000X0*%
%ADD21R,0.800000X1.000000*%
%ADD22R,1.500000X0.700000*%
%ADD23RoundRect,0.250000X-0.475000X0.250000X-0.475000X-0.250000X0.475000X-0.250000X0.475000X0.250000X0*%
%ADD24RoundRect,0.250000X0.262500X0.450000X-0.262500X0.450000X-0.262500X-0.450000X0.262500X-0.450000X0*%
%ADD25RoundRect,0.243750X0.456250X-0.243750X0.456250X0.243750X-0.456250X0.243750X-0.456250X-0.243750X0*%
%ADD26R,1.150000X1.000000*%
%ADD27RoundRect,0.250000X0.475000X-0.250000X0.475000X0.250000X-0.475000X0.250000X-0.475000X-0.250000X0*%
%ADD28R,1.450000X0.600000*%
%ADD29R,1.450000X0.300000*%
%ADD30R,1.500000X0.300000*%
%ADD31R,0.300000X1.500000*%
%ADD32RoundRect,0.150000X-0.150000X-0.600000X0.150000X-0.600000X0.150000X0.600000X-0.150000X0.600000X0*%
%ADD33RoundRect,0.250000X-0.350000X-0.650000X0.350000X-0.650000X0.350000X0.650000X-0.350000X0.650000X0*%
%ADD34R,1.500000X2.000000*%
%ADD35R,3.800000X2.000000*%
%ADD36RoundRect,0.218750X-0.381250X0.218750X-0.381250X-0.218750X0.381250X-0.218750X0.381250X0.218750X0*%
%ADD37RoundRect,0.225000X-0.250000X0.225000X-0.250000X-0.225000X0.250000X-0.225000X0.250000X0.225000X0*%
%ADD38RoundRect,0.250000X-0.625000X0.312500X-0.625000X-0.312500X0.625000X-0.312500X0.625000X0.312500X0*%
%ADD39RoundRect,0.150000X-0.600000X0.150000X-0.600000X-0.150000X0.600000X-0.150000X0.600000X0.150000X0*%
%ADD40RoundRect,0.250000X-0.650000X0.350000X-0.650000X-0.350000X0.650000X-0.350000X0.650000X0.350000X0*%
%ADD41RoundRect,0.250000X-0.375000X-1.075000X0.375000X-1.075000X0.375000X1.075000X-0.375000X1.075000X0*%
G04 APERTURE END LIST*
D10*
%TO.C,C21*%
X6200000Y-22750000D03*
X9800000Y-22750000D03*
%TD*%
D11*
%TO.C,U9*%
X50700000Y-50400000D03*
X50200000Y-50400000D03*
X49700000Y-50400000D03*
X49700000Y-51800000D03*
X50700000Y-51800000D03*
%TD*%
D12*
%TO.C,D10*%
X29600000Y-17362500D03*
X29600000Y-19237500D03*
%TD*%
D13*
%TO.C,J2*%
X20900000Y-8000000D03*
X19900000Y-8000000D03*
X18900000Y-8000000D03*
X17900000Y-8000000D03*
D14*
X22200000Y-10525000D03*
X16600000Y-10525000D03*
%TD*%
D15*
%TO.C,D4*%
X19085000Y-4050000D03*
X19085000Y-5150000D03*
X20915000Y-5150000D03*
X20915000Y-4050000D03*
%TD*%
D11*
%TO.C,U3*%
X9200000Y-50250000D03*
X8700000Y-50250000D03*
X8200000Y-50250000D03*
X8200000Y-51650000D03*
X9200000Y-51650000D03*
%TD*%
D16*
%TO.C,R21*%
X48287500Y-17700000D03*
X50112500Y-17700000D03*
%TD*%
%TO.C,R16*%
X9087500Y-10000000D03*
X10912500Y-10000000D03*
%TD*%
D17*
%TO.C,R10*%
X31000000Y-12012500D03*
X31000000Y-10187500D03*
%TD*%
D16*
%TO.C,R22*%
X48287500Y-19900000D03*
X50112500Y-19900000D03*
%TD*%
D18*
%TO.C,R2*%
X36100000Y-58687500D03*
X36100000Y-60512500D03*
%TD*%
D19*
%TO.C,U11*%
X21802500Y-17275000D03*
X21802500Y-16640000D03*
X21802500Y-16005000D03*
X21802500Y-15370000D03*
X21802500Y-14735000D03*
X21802500Y-14100000D03*
X21802500Y-13465000D03*
X21802500Y-12830000D03*
X16602500Y-12830000D03*
X16602500Y-13465000D03*
X16602500Y-14100000D03*
X16602500Y-14735000D03*
X16602500Y-15370000D03*
X16602500Y-16005000D03*
X16602500Y-16640000D03*
X16602500Y-17275000D03*
%TD*%
D18*
%TO.C,R5*%
X56000000Y-58587500D03*
X56000000Y-60412500D03*
%TD*%
%TO.C,R1*%
X16000000Y-58700000D03*
X16000000Y-60525000D03*
%TD*%
D11*
%TO.C,U10*%
X47300000Y-50400000D03*
X46800000Y-50400000D03*
X46300000Y-50400000D03*
X46300000Y-51800000D03*
X47300000Y-51800000D03*
%TD*%
D16*
%TO.C,R23*%
X48287500Y-21900000D03*
X50112500Y-21900000D03*
%TD*%
D20*
%TO.C,C10*%
X30750000Y-31700000D03*
X28850000Y-31700000D03*
%TD*%
D12*
%TO.C,D6*%
X35000000Y-17362500D03*
X35000000Y-19237500D03*
%TD*%
D20*
%TO.C,C20*%
X14250000Y-16050000D03*
X12350000Y-16050000D03*
%TD*%
%TO.C,C15*%
X14350000Y-13900000D03*
X12450000Y-13900000D03*
%TD*%
D21*
%TO.C,SW1*%
X5780000Y-26350000D03*
X3570000Y-26350000D03*
X5780000Y-33650000D03*
X3570000Y-33650000D03*
D22*
X6430000Y-27750000D03*
X6430000Y-30750000D03*
X6430000Y-32250000D03*
%TD*%
D23*
%TO.C,C12*%
X29600000Y-38150000D03*
X29600000Y-40050000D03*
%TD*%
D17*
%TO.C,R8*%
X35000000Y-12012500D03*
X35000000Y-10187500D03*
%TD*%
D11*
%TO.C,U4*%
X5000000Y-50300000D03*
X4500000Y-50300000D03*
X4000000Y-50300000D03*
X4000000Y-51700000D03*
X5000000Y-51700000D03*
%TD*%
D16*
%TO.C,R24*%
X48287500Y-24100000D03*
X50112500Y-24100000D03*
%TD*%
D23*
%TO.C,C11*%
X37500000Y-41850000D03*
X37500000Y-43750000D03*
%TD*%
D17*
%TO.C,R9*%
X33000000Y-12012500D03*
X33000000Y-10187500D03*
%TD*%
%TO.C,R7*%
X35600000Y-15612500D03*
X35600000Y-13787500D03*
%TD*%
D16*
%TO.C,R15*%
X9087500Y-12000000D03*
X10912500Y-12000000D03*
%TD*%
D12*
%TO.C,D7*%
X33600000Y-13762500D03*
X33600000Y-15637500D03*
%TD*%
D24*
%TO.C,R13*%
X412500Y-4000000D03*
X-1412500Y-4000000D03*
%TD*%
%TO.C,R20*%
X50112500Y-14900000D03*
X48287500Y-14900000D03*
%TD*%
%TO.C,R17*%
X50112500Y-7500000D03*
X48287500Y-7500000D03*
%TD*%
D15*
%TO.C,D13*%
X9335000Y-4050000D03*
X9335000Y-5150000D03*
X11165000Y-5150000D03*
X11165000Y-4050000D03*
%TD*%
D25*
%TO.C,D1*%
X16000000Y-57037500D03*
X16000000Y-55162500D03*
%TD*%
D24*
%TO.C,R25*%
X30112500Y-25600000D03*
X28287500Y-25600000D03*
%TD*%
D11*
%TO.C,U7*%
X24250000Y-50330000D03*
X23750000Y-50330000D03*
X23250000Y-50330000D03*
X23250000Y-51730000D03*
X24250000Y-51730000D03*
%TD*%
D24*
%TO.C,R18*%
X50112500Y-9900000D03*
X48287500Y-9900000D03*
%TD*%
D16*
%TO.C,R26*%
X28287500Y-23400000D03*
X30112500Y-23400000D03*
%TD*%
D26*
%TO.C,Y1*%
X44575000Y-42000000D03*
X42825000Y-42000000D03*
X42825000Y-43400000D03*
X44575000Y-43400000D03*
%TD*%
D27*
%TO.C,C17*%
X7000000Y-9450000D03*
X7000000Y-7550000D03*
%TD*%
D28*
%TO.C,J5*%
X2045000Y-7250000D03*
X2045000Y-8050000D03*
D29*
X2045000Y-9250000D03*
X2045000Y-10250000D03*
X2045000Y-10750000D03*
X2045000Y-11750000D03*
D28*
X2045000Y-12950000D03*
X2045000Y-13750000D03*
X2045000Y-13750000D03*
X2045000Y-12950000D03*
D29*
X2045000Y-12250000D03*
X2045000Y-11250000D03*
X2045000Y-9750000D03*
X2045000Y-8750000D03*
D28*
X2045000Y-8050000D03*
X2045000Y-7250000D03*
%TD*%
D24*
%TO.C,R6*%
X34325000Y-7900000D03*
X32500000Y-7900000D03*
%TD*%
D15*
%TO.C,D12*%
X12585000Y-4050000D03*
X12585000Y-5150000D03*
X14415000Y-5150000D03*
X14415000Y-4050000D03*
%TD*%
D24*
%TO.C,R3*%
X56725000Y-30500000D03*
X54900000Y-30500000D03*
%TD*%
D17*
%TO.C,R12*%
X27000000Y-12012500D03*
X27000000Y-10187500D03*
%TD*%
D30*
%TO.C,U1*%
X32800000Y-26250000D03*
X32800000Y-26750000D03*
X32800000Y-27250000D03*
X32800000Y-27750000D03*
X32800000Y-28250000D03*
X32800000Y-28750000D03*
X32800000Y-29250000D03*
X32800000Y-29750000D03*
X32800000Y-30250000D03*
X32800000Y-30750000D03*
X32800000Y-31250000D03*
X32800000Y-31750000D03*
X32800000Y-32250000D03*
X32800000Y-32750000D03*
X32800000Y-33250000D03*
X32800000Y-33750000D03*
X32800000Y-34250000D03*
X32800000Y-34750000D03*
X32800000Y-35250000D03*
X32800000Y-35750000D03*
D31*
X34750000Y-37700000D03*
X35250000Y-37700000D03*
X35750000Y-37700000D03*
X36250000Y-37700000D03*
X36750000Y-37700000D03*
X37250000Y-37700000D03*
X37750000Y-37700000D03*
X38250000Y-37700000D03*
X38750000Y-37700000D03*
X39250000Y-37700000D03*
X39750000Y-37700000D03*
X40250000Y-37700000D03*
X40750000Y-37700000D03*
X41250000Y-37700000D03*
X41750000Y-37700000D03*
X42250000Y-37700000D03*
X42750000Y-37700000D03*
X43250000Y-37700000D03*
X43750000Y-37700000D03*
X44250000Y-37700000D03*
D30*
X46200000Y-35750000D03*
X46200000Y-35250000D03*
X46200000Y-34750000D03*
X46200000Y-34250000D03*
X46200000Y-33750000D03*
X46200000Y-33250000D03*
X46200000Y-32750000D03*
X46200000Y-32250000D03*
X46200000Y-31750000D03*
X46200000Y-31250000D03*
X46200000Y-30750000D03*
X46200000Y-30250000D03*
X46200000Y-29750000D03*
X46200000Y-29250000D03*
X46200000Y-28750000D03*
X46200000Y-28250000D03*
X46200000Y-27750000D03*
X46200000Y-27250000D03*
X46200000Y-26750000D03*
X46200000Y-26250000D03*
D31*
X44250000Y-24300000D03*
X43750000Y-24300000D03*
X43250000Y-24300000D03*
X42750000Y-24300000D03*
X42250000Y-24300000D03*
X41750000Y-24300000D03*
X41250000Y-24300000D03*
X40750000Y-24300000D03*
X40250000Y-24300000D03*
X39750000Y-24300000D03*
X39250000Y-24300000D03*
X38750000Y-24300000D03*
X38250000Y-24300000D03*
X37750000Y-24300000D03*
X37250000Y-24300000D03*
X36750000Y-24300000D03*
X36250000Y-24300000D03*
X35750000Y-24300000D03*
X35250000Y-24300000D03*
X34750000Y-24300000D03*
%TD*%
D32*
%TO.C,Connector_X1*%
X5400000Y-56275000D03*
X6400000Y-56275000D03*
X7400000Y-56275000D03*
X8400000Y-56275000D03*
X9400000Y-56275000D03*
X10400000Y-56275000D03*
X11400000Y-56275000D03*
X12400000Y-56275000D03*
D33*
X4100000Y-60175000D03*
X13700000Y-60175000D03*
%TD*%
D23*
%TO.C,C19*%
X9250000Y-31050000D03*
X9250000Y-32950000D03*
%TD*%
D17*
%TO.C,R11*%
X29000000Y-12012500D03*
X29000000Y-10187500D03*
%TD*%
D24*
%TO.C,R19*%
X50112500Y-12300000D03*
X48287500Y-12300000D03*
%TD*%
D25*
%TO.C,D3*%
X56100000Y-56837500D03*
X56100000Y-54962500D03*
%TD*%
D12*
%TO.C,D9*%
X31000000Y-13762500D03*
X31000000Y-15637500D03*
%TD*%
D34*
%TO.C,U12*%
X16700000Y-29650000D03*
X19000000Y-29650000D03*
D35*
X19000000Y-23350000D03*
D34*
X21300000Y-29650000D03*
%TD*%
D36*
%TO.C,L1*%
X27500000Y-38706250D03*
X27500000Y-40831250D03*
%TD*%
D12*
%TO.C,D11*%
X28400000Y-13762500D03*
X28400000Y-15637500D03*
%TD*%
D25*
%TO.C,D2*%
X36100000Y-57037500D03*
X36100000Y-55162500D03*
%TD*%
D32*
%TO.C,Connector_Y1*%
X25400000Y-56275000D03*
X26400000Y-56275000D03*
X27400000Y-56275000D03*
X28400000Y-56275000D03*
X29400000Y-56275000D03*
X30400000Y-56275000D03*
X31400000Y-56275000D03*
X32400000Y-56275000D03*
D33*
X24100000Y-60175000D03*
X33700000Y-60175000D03*
%TD*%
D37*
%TO.C,C13*%
X41200000Y-43625000D03*
X41200000Y-45175000D03*
%TD*%
D27*
%TO.C,C6*%
X40000000Y-20650000D03*
X40000000Y-18750000D03*
%TD*%
D20*
%TO.C,C18*%
X4450000Y-17000000D03*
X2550000Y-17000000D03*
%TD*%
D12*
%TO.C,D8*%
X32400000Y-17362500D03*
X32400000Y-19237500D03*
%TD*%
D18*
%TO.C,R14*%
X7500000Y-16500000D03*
X7500000Y-18325000D03*
%TD*%
D20*
%TO.C,C22*%
X18950000Y-20700000D03*
X17050000Y-20700000D03*
%TD*%
D38*
%TO.C,FB1*%
X3000000Y-19037500D03*
X3000000Y-21962500D03*
%TD*%
D37*
%TO.C,C14*%
X46200000Y-41925000D03*
X46200000Y-43475000D03*
%TD*%
D23*
%TO.C,C16*%
X7000000Y-12050000D03*
X7000000Y-13950000D03*
%TD*%
D32*
%TO.C,Connector_Z1*%
X45400000Y-56275000D03*
X46400000Y-56275000D03*
X47400000Y-56275000D03*
X48400000Y-56275000D03*
X49400000Y-56275000D03*
X50400000Y-56275000D03*
X51400000Y-56275000D03*
X52400000Y-56275000D03*
D33*
X44100000Y-60175000D03*
X53700000Y-60175000D03*
%TD*%
D23*
%TO.C,C5*%
X56000000Y-26900000D03*
X56000000Y-28800000D03*
%TD*%
D15*
%TO.C,D5*%
X15835000Y-4050000D03*
X15835000Y-5150000D03*
X17665000Y-5150000D03*
X17665000Y-4050000D03*
%TD*%
D39*
%TO.C,J6*%
X2325000Y-37100000D03*
X2325000Y-38100000D03*
D40*
X-1575000Y-35800000D03*
X-1575000Y-39400000D03*
%TD*%
D41*
%TO.C,F1*%
X9200000Y-27200000D03*
X12000000Y-27200000D03*
%TD*%
D16*
%TO.C,R4*%
X54900000Y-32500000D03*
X56725000Y-32500000D03*
%TD*%
D23*
%TO.C,C9*%
X50000000Y-29150000D03*
X50000000Y-31050000D03*
%TD*%
D11*
%TO.C,U6*%
X28450000Y-50330000D03*
X27950000Y-50330000D03*
X27450000Y-50330000D03*
X27450000Y-51730000D03*
X28450000Y-51730000D03*
%TD*%
M02*
