M48
; DRILL file {KiCad 8.0.1} date 2024-04-11T22:43:05-0400
; FORMAT={-:-/ absolute / inch / decimal}
; #@! TF.CreationDate,2024-04-11T22:43:05-04:00
; #@! TF.GenerationSoftware,Kicad,Pcbnew,8.0.1
; #@! TF.FileFunction,Plated,1,2,PTH
FMAT,2
INCH
; #@! TA.AperFunction,Plated,PTH,ViaDrill
T1C0.0157
; #@! TA.AperFunction,Plated,PTH,ComponentDrill
T2C0.0236
; #@! TA.AperFunction,Plated,PTH,ComponentDrill
T3C0.0315
; #@! TA.AperFunction,Plated,PTH,ComponentDrill
T4C0.0394
; #@! TA.AperFunction,Plated,PTH,ComponentDrill
T5C0.1063
%
G90
G05
T1
X-0.0984Y-0.2953
X-0.0984Y-0.4921
X0.0Y-1.4764
X0.0Y-1.6732
X0.0984Y0.1083
X0.0984Y-2.3622
X0.1083Y-1.1024
X0.1083Y-1.2598
X0.1181Y-0.6004
X0.126Y-1.6811
X0.1575Y-0.3248
X0.1673Y-0.5807
X0.1969Y-1.6732
X0.1969Y-1.8701
X0.1969Y-2.2638
X0.2165Y-0.2461
X0.2264Y-0.8071
X0.2953Y-2.3622
X0.3069Y-1.9372
X0.3069Y-2.0142
X0.3504Y-1.937
X0.3622Y-2.0709
X0.3661Y-1.3858
X0.3813Y-2.0087
X0.3898Y-0.6378
X0.3937Y-1.2795
X0.4577Y-1.2018
X0.4921Y-2.3622
X0.4921Y-0.9843
X0.5906Y-0.8858
X0.5906Y-0.9843
X0.5906Y-1.0827
X0.5906Y-1.378
X0.5906Y-1.6732
X0.5906Y-1.8701
X0.5906Y-2.0669
X0.6496Y-0.3031
X0.7008Y-0.248
X0.7205Y-0.7362
X0.748Y-1.0669
X0.7874Y-1.378
X0.7874Y-1.6732
X0.7874Y-1.8701
X0.7874Y-2.0669
X0.7874Y-2.2638
X0.7874Y-2.3622
X0.7992Y-0.5236
X0.8228Y-0.2441
X0.8858Y-0.9843
X0.9252Y-0.622
X0.9291Y-0.6929
X0.9646Y-0.3937
X0.9646Y-0.5217
X0.9843Y-2.2638
X1.0647Y-1.939
X1.0647Y-2.016
X1.0827Y-1.5657
X1.0827Y-2.3622
X1.0866Y-0.8071
X1.0866Y-1.6535
X1.1083Y-1.9388
X1.126Y-1.311
X1.1339Y-0.8071
X1.1392Y-2.0105
X1.1584Y-2.0806
X1.1811Y-1.378
X1.2047Y-0.1181
X1.2205Y-0.8071
X1.2795Y-1.4764
X1.2795Y-2.3622
X1.2835Y-0.8071
X1.3228Y-0.8071
X1.3465Y-1.1929
X1.3465Y-1.2323
X1.378Y-0.8071
X1.378Y-1.1457
X1.378Y-1.8701
X1.378Y-2.0669
X1.4075Y-1.1142
X1.4094Y-0.311
X1.4213Y-1.6457
X1.4291Y-1.7205
X1.4409Y-1.1614
X1.4724Y-1.122
X1.5039Y-1.1614
X1.5197Y-0.626
X1.5354Y-1.1299
X1.5453Y-0.3839
X1.563Y-0.5591
X1.5748Y-1.2795
X1.5748Y-1.378
X1.5748Y-1.8701
X1.5748Y-2.0669
X1.5748Y-2.2638
X1.5748Y-2.3622
X1.5787Y-1.7874
X1.6063Y-0.689
X1.6181Y-1.1457
X1.6535Y-1.6142
X1.6732Y-1.0827
X1.6732Y-1.2795
X1.6732Y-1.378
X1.7559Y-1.7559
X1.7717Y-1.8701
X1.7717Y-2.0669
X1.7717Y-2.2638
X1.8425Y-0.6417
X1.8425Y-1.7874
X1.8504Y-1.5256
X1.8701Y-2.3622
X1.934Y-2.0965
X1.9528Y-1.0433
X1.9783Y-2.1063
X1.9843Y-1.9449
X1.9951Y-1.2638
X2.0079Y-1.0551
X2.0177Y-2.1063
X2.0266Y-1.9449
X2.0266Y-1.1535
X2.0515Y-1.0745
X2.0669Y-2.3622
X2.1024Y-1.0276
X2.1181Y-1.3031
X2.1496Y-0.9646
X2.1496Y-1.1142
X2.1654Y0.1083
X2.1654Y-0.0984
X2.1654Y-0.2953
X2.1654Y-0.4921
X2.1654Y-0.7874
X2.1654Y-1.8701
X2.1887Y-1.1184
X2.1969Y-1.3228
X2.2165Y-0.8858
X2.2205Y-0.9528
X2.2559Y-1.0669
X2.2638Y-1.1378
X2.3189Y-0.8898
X2.3346Y-1.7087
X2.3622Y-2.0669
X2.3858Y-1.0827
T3
X2.0643Y-0.2323
X2.0643Y-0.3323
X2.0643Y-0.4323
X2.0643Y-0.5323
X2.0643Y-0.6323
X2.0643Y-0.7323
X2.0643Y-0.8323
X2.0643Y-0.9323
X2.3643Y-0.2323
X2.3643Y-0.3323
X2.3643Y-0.4323
X2.3643Y-0.5323
X2.3643Y-0.6323
X2.3643Y-0.7323
X2.3643Y-0.8323
X2.3643Y-0.9323
T4
X0.1929Y0.0492
X0.1929Y-0.0508
X0.2929Y0.0492
X0.2929Y-0.0508
X0.3929Y0.0492
X0.3929Y-0.0508
X0.4929Y0.0492
X0.4929Y-0.0508
X0.5929Y0.0492
X0.5929Y-0.0508
X0.6929Y0.0492
X0.6929Y-0.0508
X0.7929Y0.0492
X0.7929Y-0.0508
X0.8929Y0.0492
X0.8929Y-0.0508
X0.9618Y-0.185
X0.9929Y0.0492
X0.9929Y-0.0508
X1.0618Y-0.185
X1.0929Y0.0492
X1.0929Y-0.0508
X1.1618Y-0.185
X1.1929Y0.0492
X1.1929Y-0.0508
X1.2618Y-0.185
X1.2929Y0.0492
X1.2929Y-0.0508
X1.3618Y-0.185
X1.3929Y0.0492
X1.3929Y-0.0508
X1.4618Y-0.185
X1.4929Y0.0492
X1.4929Y-0.0508
X1.5618Y-0.185
X1.5929Y0.0492
X1.5929Y-0.0508
X1.6618Y-0.185
X1.6929Y0.0492
X1.6929Y-0.0508
X1.7618Y-0.185
X1.7929Y0.0492
X1.7929Y-0.0508
X1.8929Y0.0492
X1.8929Y-0.0508
X1.9929Y0.0492
X1.9929Y-0.0508
X2.0929Y0.0492
X2.0929Y-0.0508
X2.1785Y-1.3915
X2.1785Y-1.4915
X2.1785Y-1.5915
X2.2785Y-1.3915
X2.2785Y-1.4915
X2.2785Y-1.5915
X2.3425Y-1.1455
X2.3425Y-1.2455
T5
X0.0Y0.0
X0.0Y-1.9291
X2.2835Y0.0
X2.2835Y-1.9291
T2
G00X-0.1083Y-0.2433
M15
G01X-0.1319Y-0.2433
M16
G05
G00X-0.1083Y-0.5835
M15
G01X-0.1319Y-0.5835
M16
G05
G00X0.0661Y-0.2433
M15
G01X0.0228Y-0.2433
M16
G05
G00X0.0661Y-0.5835
M15
G01X0.0228Y-0.5835
M16
G05
M30
