%TF.GenerationSoftware,KiCad,Pcbnew,8.0.1*%
%TF.CreationDate,2024-04-11T22:43:03-04:00*%
%TF.ProjectId,DSPicPiHat,44535069-6350-4694-9861-742e6b696361,rev?*%
%TF.SameCoordinates,Original*%
%TF.FileFunction,Soldermask,Top*%
%TF.FilePolarity,Negative*%
%FSLAX46Y46*%
G04 Gerber Fmt 4.6, Leading zero omitted, Abs format (unit mm)*
G04 Created by KiCad (PCBNEW 8.0.1) date 2024-04-11 22:43:03*
%MOMM*%
%LPD*%
G01*
G04 APERTURE LIST*
G04 Aperture macros list*
%AMRoundRect*
0 Rectangle with rounded corners*
0 $1 Rounding radius*
0 $2 $3 $4 $5 $6 $7 $8 $9 X,Y pos of 4 corners*
0 Add a 4 corners polygon primitive as box body*
4,1,4,$2,$3,$4,$5,$6,$7,$8,$9,$2,$3,0*
0 Add four circle primitives for the rounded corners*
1,1,$1+$1,$2,$3*
1,1,$1+$1,$4,$5*
1,1,$1+$1,$6,$7*
1,1,$1+$1,$8,$9*
0 Add four rect primitives between the rounded corners*
20,1,$1+$1,$2,$3,$4,$5,0*
20,1,$1+$1,$4,$5,$6,$7,0*
20,1,$1+$1,$6,$7,$8,$9,0*
20,1,$1+$1,$8,$9,$2,$3,0*%
G04 Aperture macros list end*
%ADD10C,0.000000*%
%ADD11RoundRect,0.250000X-1.050000X-0.550000X1.050000X-0.550000X1.050000X0.550000X-1.050000X0.550000X0*%
%ADD12R,0.300000X0.450000*%
%ADD13RoundRect,0.243750X-0.456250X0.243750X-0.456250X-0.243750X0.456250X-0.243750X0.456250X0.243750X0*%
%ADD14RoundRect,0.150000X0.150000X0.625000X-0.150000X0.625000X-0.150000X-0.625000X0.150000X-0.625000X0*%
%ADD15RoundRect,0.250000X0.350000X0.650000X-0.350000X0.650000X-0.350000X-0.650000X0.350000X-0.650000X0*%
%ADD16R,0.700000X0.700000*%
%ADD17RoundRect,0.250000X-0.262500X-0.450000X0.262500X-0.450000X0.262500X0.450000X-0.262500X0.450000X0*%
%ADD18C,2.000000*%
%ADD19RoundRect,0.250000X0.450000X-0.262500X0.450000X0.262500X-0.450000X0.262500X-0.450000X-0.262500X0*%
%ADD20RoundRect,0.250000X-0.450000X0.262500X-0.450000X-0.262500X0.450000X-0.262500X0.450000X0.262500X0*%
%ADD21R,1.200000X0.400000*%
%ADD22R,1.700000X1.700000*%
%ADD23O,1.700000X1.700000*%
%ADD24RoundRect,0.250000X0.250000X0.475000X-0.250000X0.475000X-0.250000X-0.475000X0.250000X-0.475000X0*%
%ADD25R,1.600000X1.600000*%
%ADD26O,1.600000X1.600000*%
%ADD27R,0.800000X1.000000*%
%ADD28C,0.900000*%
%ADD29R,1.500000X0.700000*%
%ADD30RoundRect,0.250000X-0.475000X0.250000X-0.475000X-0.250000X0.475000X-0.250000X0.475000X0.250000X0*%
%ADD31C,4.700000*%
%ADD32C,1.000000*%
%ADD33RoundRect,0.250000X0.262500X0.450000X-0.262500X0.450000X-0.262500X-0.450000X0.262500X-0.450000X0*%
%ADD34RoundRect,0.243750X0.456250X-0.243750X0.456250X0.243750X-0.456250X0.243750X-0.456250X-0.243750X0*%
%ADD35R,1.150000X1.000000*%
%ADD36RoundRect,0.250000X0.475000X-0.250000X0.475000X0.250000X-0.475000X0.250000X-0.475000X-0.250000X0*%
%ADD37C,0.650000*%
%ADD38R,1.450000X0.600000*%
%ADD39R,1.450000X0.300000*%
%ADD40O,2.100000X1.000000*%
%ADD41O,1.600000X1.000000*%
%ADD42R,1.500000X0.300000*%
%ADD43R,0.300000X1.500000*%
%ADD44RoundRect,0.150000X-0.150000X-0.600000X0.150000X-0.600000X0.150000X0.600000X-0.150000X0.600000X0*%
%ADD45RoundRect,0.250000X-0.350000X-0.650000X0.350000X-0.650000X0.350000X0.650000X-0.350000X0.650000X0*%
%ADD46R,1.500000X2.000000*%
%ADD47R,3.800000X2.000000*%
%ADD48RoundRect,0.218750X-0.381250X0.218750X-0.381250X-0.218750X0.381250X-0.218750X0.381250X0.218750X0*%
%ADD49RoundRect,0.225000X-0.250000X0.225000X-0.250000X-0.225000X0.250000X-0.225000X0.250000X0.225000X0*%
%ADD50RoundRect,0.250000X-0.625000X0.312500X-0.625000X-0.312500X0.625000X-0.312500X0.625000X0.312500X0*%
%ADD51RoundRect,0.150000X-0.600000X0.150000X-0.600000X-0.150000X0.600000X-0.150000X0.600000X0.150000X0*%
%ADD52RoundRect,0.250000X-0.650000X0.350000X-0.650000X-0.350000X0.650000X-0.350000X0.650000X0.350000X0*%
%ADD53RoundRect,0.250000X-0.375000X-1.075000X0.375000X-1.075000X0.375000X1.075000X-0.375000X1.075000X0*%
G04 APERTURE END LIST*
D10*
%TO.C,G\u002A\u002A\u002A*%
G36*
X-157148Y-52476201D02*
G01*
X-99423Y-52503908D01*
X-53319Y-52548902D01*
X-40775Y-52569662D01*
X-35994Y-52580838D01*
X-31837Y-52595263D01*
X-28260Y-52614950D01*
X-25220Y-52641915D01*
X-22674Y-52678172D01*
X-20580Y-52725735D01*
X-18892Y-52786620D01*
X-17570Y-52862842D01*
X-16568Y-52956414D01*
X-15845Y-53069352D01*
X-15356Y-53203670D01*
X-15058Y-53361384D01*
X-14909Y-53544507D01*
X-14865Y-53755054D01*
X-14865Y-53777422D01*
X-14901Y-53990778D01*
X-15037Y-54176509D01*
X-15318Y-54336630D01*
X-15785Y-54473153D01*
X-16483Y-54588094D01*
X-17454Y-54683464D01*
X-18742Y-54761279D01*
X-20390Y-54823551D01*
X-22441Y-54872294D01*
X-24938Y-54909523D01*
X-27925Y-54937250D01*
X-31445Y-54957490D01*
X-35541Y-54972256D01*
X-40256Y-54983562D01*
X-40775Y-54984604D01*
X-50261Y-54999416D01*
X-65713Y-55015943D01*
X-89560Y-55035751D01*
X-124230Y-55060404D01*
X-172153Y-55091465D01*
X-235755Y-55130500D01*
X-317467Y-55179072D01*
X-419717Y-55238746D01*
X-544933Y-55311085D01*
X-570536Y-55325824D01*
X-800744Y-55458304D01*
X-1006492Y-55576735D01*
X-1189021Y-55681833D01*
X-1349570Y-55774315D01*
X-1489379Y-55854896D01*
X-1609688Y-55924294D01*
X-1711735Y-55983224D01*
X-1796760Y-56032403D01*
X-1866004Y-56072547D01*
X-1920705Y-56104372D01*
X-1962103Y-56128595D01*
X-1991438Y-56145932D01*
X-2009949Y-56157099D01*
X-2018496Y-56162547D01*
X-2025533Y-56171268D01*
X-2021032Y-56182841D01*
X-2001829Y-56199757D01*
X-1964763Y-56224510D01*
X-1906671Y-56259591D01*
X-1862895Y-56285189D01*
X-1773298Y-56337175D01*
X-1662086Y-56401577D01*
X-1533339Y-56476038D01*
X-1391137Y-56558204D01*
X-1239563Y-56645720D01*
X-1082695Y-56736231D01*
X-924615Y-56827382D01*
X-769403Y-56916818D01*
X-621140Y-57002185D01*
X-483905Y-57081126D01*
X-446055Y-57102882D01*
X-337512Y-57165393D01*
X-251763Y-57215307D01*
X-185837Y-57254681D01*
X-136768Y-57285574D01*
X-101586Y-57310044D01*
X-77322Y-57330148D01*
X-61009Y-57347944D01*
X-49677Y-57365490D01*
X-40832Y-57383778D01*
X-24056Y-57424874D01*
X-19712Y-57454516D01*
X-27415Y-57487683D01*
X-37458Y-57514981D01*
X-60951Y-57562549D01*
X-92882Y-57592861D01*
X-124070Y-57609379D01*
X-167843Y-57628003D01*
X-197676Y-57634690D01*
X-226239Y-57630545D01*
X-254986Y-57620797D01*
X-278039Y-57609696D01*
X-322960Y-57585732D01*
X-386023Y-57550981D01*
X-463498Y-57507519D01*
X-551656Y-57457425D01*
X-646771Y-57402773D01*
X-655103Y-57397957D01*
X-738941Y-57349510D01*
X-844430Y-57288601D01*
X-967540Y-57217555D01*
X-1104235Y-57138700D01*
X-1250484Y-57054361D01*
X-1402254Y-56966864D01*
X-1555510Y-56878536D01*
X-1706221Y-56791701D01*
X-1748658Y-56767256D01*
X-1884551Y-56688954D01*
X-2013478Y-56614614D01*
X-2133019Y-56545635D01*
X-2240754Y-56483416D01*
X-2334261Y-56429357D01*
X-2411120Y-56384857D01*
X-2468912Y-56351315D01*
X-2505214Y-56330130D01*
X-2516786Y-56323252D01*
X-2530452Y-56314629D01*
X-2542388Y-56305553D01*
X-2552709Y-56294073D01*
X-2561533Y-56278238D01*
X-2568978Y-56256096D01*
X-2575160Y-56225696D01*
X-2580196Y-56185086D01*
X-2584205Y-56132313D01*
X-2587303Y-56065428D01*
X-2589607Y-55982478D01*
X-2591234Y-55881511D01*
X-2591406Y-55862044D01*
X-2222870Y-55862044D01*
X-2159889Y-55826380D01*
X-2131373Y-55810099D01*
X-2080945Y-55781166D01*
X-2012361Y-55741742D01*
X-1929380Y-55693988D01*
X-1835759Y-55640067D01*
X-1735256Y-55582141D01*
X-1696791Y-55559960D01*
X-1580338Y-55492778D01*
X-1456511Y-55421302D01*
X-1331955Y-55349373D01*
X-1213321Y-55280831D01*
X-1107255Y-55219516D01*
X-1022520Y-55170491D01*
X-926052Y-55114700D01*
X-824190Y-55055888D01*
X-724767Y-54998570D01*
X-635615Y-54947261D01*
X-566832Y-54907776D01*
X-385297Y-54803774D01*
X-385297Y-52968736D01*
X-418640Y-52986440D01*
X-440222Y-52998480D01*
X-483629Y-53023161D01*
X-545027Y-53058287D01*
X-620583Y-53101662D01*
X-706465Y-53151089D01*
X-785414Y-53196619D01*
X-1025647Y-53335283D01*
X-1244249Y-53461437D01*
X-1440771Y-53574822D01*
X-1614764Y-53675179D01*
X-1765778Y-53762248D01*
X-1893365Y-53835772D01*
X-1997074Y-53895490D01*
X-2076457Y-53941145D01*
X-2131064Y-53972477D01*
X-2159889Y-53988912D01*
X-2222870Y-54024471D01*
X-2222870Y-55862044D01*
X-2591406Y-55862044D01*
X-2592302Y-55760577D01*
X-2592928Y-55617723D01*
X-2593229Y-55450998D01*
X-2593323Y-55258450D01*
X-2593326Y-55048639D01*
X-2593285Y-54835600D01*
X-2593145Y-54650184D01*
X-2592860Y-54490373D01*
X-2592388Y-54354151D01*
X-2591685Y-54239502D01*
X-2590709Y-54144409D01*
X-2589414Y-54066856D01*
X-2587759Y-54004827D01*
X-2585699Y-53956305D01*
X-2583191Y-53919273D01*
X-2580191Y-53891716D01*
X-2576657Y-53871617D01*
X-2572544Y-53856960D01*
X-2567810Y-53845727D01*
X-2567392Y-53844894D01*
X-2552975Y-53822988D01*
X-2529662Y-53799711D01*
X-2493703Y-53772375D01*
X-2441348Y-53738292D01*
X-2368850Y-53694776D01*
X-2311785Y-53661675D01*
X-2223496Y-53610859D01*
X-2113689Y-53547619D01*
X-1986514Y-53474346D01*
X-1846121Y-53393432D01*
X-1696659Y-53307270D01*
X-1542280Y-53218254D01*
X-1387134Y-53128774D01*
X-1235370Y-53041224D01*
X-1091138Y-52957996D01*
X-1066977Y-52944052D01*
X-979651Y-52893609D01*
X-875436Y-52833346D01*
X-763077Y-52768323D01*
X-651317Y-52703601D01*
X-549950Y-52644846D01*
X-464038Y-52595893D01*
X-384153Y-52552000D01*
X-314691Y-52515454D01*
X-260048Y-52488543D01*
X-224621Y-52473554D01*
X-216520Y-52471362D01*
X-157148Y-52476201D01*
G37*
G36*
X389387Y-52487849D02*
G01*
X424794Y-52506201D01*
X438459Y-52515182D01*
X450451Y-52524565D01*
X460880Y-52536236D01*
X469854Y-52552081D01*
X477483Y-52573988D01*
X483876Y-52603840D01*
X489142Y-52643526D01*
X493391Y-52694931D01*
X496731Y-52759941D01*
X499272Y-52840442D01*
X501123Y-52938321D01*
X502394Y-53055463D01*
X503192Y-53193756D01*
X503629Y-53355084D01*
X503812Y-53541334D01*
X503851Y-53754393D01*
X503851Y-55098954D01*
X1263332Y-55536479D01*
X1401538Y-55616067D01*
X1532753Y-55691570D01*
X1654610Y-55761631D01*
X1764742Y-55824890D01*
X1860782Y-55879990D01*
X1940361Y-55925573D01*
X2001114Y-55960280D01*
X2040673Y-55982753D01*
X2056156Y-55991374D01*
X2089499Y-56008744D01*
X2089824Y-54885673D01*
X2089914Y-54676032D01*
X2090086Y-54493957D01*
X2090389Y-54337375D01*
X2090873Y-54204212D01*
X2091586Y-54092398D01*
X2092579Y-53999858D01*
X2093899Y-53924521D01*
X2095597Y-53864314D01*
X2097721Y-53817163D01*
X2100322Y-53780998D01*
X2103446Y-53753743D01*
X2107145Y-53733328D01*
X2111468Y-53717680D01*
X2116462Y-53704725D01*
X2117926Y-53701433D01*
X2144066Y-53657178D01*
X2179743Y-53629165D01*
X2211197Y-53615252D01*
X2253738Y-53600745D01*
X2284614Y-53598156D01*
X2319321Y-53607548D01*
X2340456Y-53615753D01*
X2388697Y-53641692D01*
X2419965Y-53678701D01*
X2431774Y-53701935D01*
X2436580Y-53713646D01*
X2440795Y-53727528D01*
X2444457Y-53745495D01*
X2447606Y-53769461D01*
X2450281Y-53801339D01*
X2452522Y-53843044D01*
X2454367Y-53896489D01*
X2455856Y-53963588D01*
X2457028Y-54046254D01*
X2457922Y-54146402D01*
X2458579Y-54265946D01*
X2459036Y-54406799D01*
X2459334Y-54570875D01*
X2459511Y-54760088D01*
X2459607Y-54976351D01*
X2459629Y-55059277D01*
X2459756Y-55291761D01*
X2459908Y-55496460D01*
X2459915Y-55675228D01*
X2459606Y-55829916D01*
X2458811Y-55962377D01*
X2457359Y-56074465D01*
X2455080Y-56168032D01*
X2451803Y-56244931D01*
X2447357Y-56307015D01*
X2441573Y-56356136D01*
X2434280Y-56394147D01*
X2425307Y-56422902D01*
X2414483Y-56444253D01*
X2401639Y-56460052D01*
X2386603Y-56472152D01*
X2369206Y-56482407D01*
X2349276Y-56492669D01*
X2326643Y-56504791D01*
X2326605Y-56504813D01*
X2248554Y-56549317D01*
X2151285Y-56604956D01*
X2041239Y-56668029D01*
X1924857Y-56734838D01*
X1808580Y-56801681D01*
X1698847Y-56864859D01*
X1602101Y-56920672D01*
X1526371Y-56964499D01*
X1422958Y-57024415D01*
X1311563Y-57088810D01*
X1195184Y-57155966D01*
X1076814Y-57224163D01*
X959449Y-57291684D01*
X846084Y-57356807D01*
X739715Y-57417816D01*
X643335Y-57472990D01*
X559941Y-57520611D01*
X492528Y-57558960D01*
X444090Y-57586318D01*
X417622Y-57600966D01*
X414936Y-57602367D01*
X352384Y-57626247D01*
X297221Y-57627802D01*
X242624Y-57609727D01*
X198170Y-57583128D01*
X170006Y-57546871D01*
X156442Y-57516108D01*
X141911Y-57473032D01*
X139469Y-57441848D01*
X148920Y-57407474D01*
X154835Y-57392314D01*
X182896Y-57344946D01*
X220933Y-57306091D01*
X226198Y-57302382D01*
X237647Y-57294991D01*
X252761Y-57285590D01*
X273206Y-57273216D01*
X300645Y-57256904D01*
X336743Y-57235691D01*
X383164Y-57208611D01*
X441573Y-57174702D01*
X513633Y-57132997D01*
X601010Y-57082534D01*
X705367Y-57022348D01*
X828370Y-56951475D01*
X971681Y-56868950D01*
X1136967Y-56773810D01*
X1325891Y-56665089D01*
X1374053Y-56637376D01*
X1507172Y-56560596D01*
X1616509Y-56497053D01*
X1704107Y-56445443D01*
X1772010Y-56404462D01*
X1822261Y-56372805D01*
X1856904Y-56349169D01*
X1877982Y-56332249D01*
X1887539Y-56320742D01*
X1887620Y-56313344D01*
X1885313Y-56311145D01*
X1866491Y-56299674D01*
X1825067Y-56275305D01*
X1763798Y-56239623D01*
X1685442Y-56194208D01*
X1592755Y-56140644D01*
X1488495Y-56080512D01*
X1375418Y-56015397D01*
X1256282Y-55946879D01*
X1133843Y-55876542D01*
X1010860Y-55805969D01*
X890088Y-55736741D01*
X774285Y-55670441D01*
X666208Y-55608652D01*
X568614Y-55552957D01*
X484260Y-55504937D01*
X415903Y-55466176D01*
X366300Y-55438256D01*
X338208Y-55422760D01*
X333056Y-55420151D01*
X316902Y-55426023D01*
X277482Y-55445685D01*
X217062Y-55477871D01*
X137903Y-55521317D01*
X42271Y-55574756D01*
X-67572Y-55636923D01*
X-189360Y-55706552D01*
X-320830Y-55782378D01*
X-459719Y-55863135D01*
X-467746Y-55867823D01*
X-608363Y-55949721D01*
X-742719Y-56027543D01*
X-868404Y-56099921D01*
X-983009Y-56165486D01*
X-1084124Y-56222873D01*
X-1169340Y-56270713D01*
X-1236248Y-56307640D01*
X-1282439Y-56332285D01*
X-1305501Y-56343281D01*
X-1305554Y-56343299D01*
X-1370220Y-56352592D01*
X-1428512Y-56337934D01*
X-1477107Y-56304513D01*
X-1512682Y-56257514D01*
X-1531911Y-56202122D01*
X-1531473Y-56143523D01*
X-1508042Y-56086902D01*
X-1486580Y-56060867D01*
X-1467573Y-56047104D01*
X-1425237Y-56019882D01*
X-1361894Y-55980599D01*
X-1279862Y-55930650D01*
X-1181462Y-55871430D01*
X-1069013Y-55804335D01*
X-944835Y-55730761D01*
X-811249Y-55652102D01*
X-670573Y-55569756D01*
X-658519Y-55562722D01*
X133373Y-55100746D01*
X133698Y-53868547D01*
X133782Y-53648314D01*
X133939Y-53455752D01*
X134210Y-53288892D01*
X134639Y-53145766D01*
X135268Y-53024406D01*
X136139Y-52922845D01*
X137295Y-52839115D01*
X138778Y-52771247D01*
X140630Y-52717273D01*
X142894Y-52675226D01*
X145613Y-52643138D01*
X148829Y-52619040D01*
X152584Y-52600965D01*
X156921Y-52586944D01*
X161576Y-52575680D01*
X201519Y-52519855D01*
X257111Y-52485470D01*
X321888Y-52474233D01*
X389387Y-52487849D01*
G37*
%TD*%
D11*
%TO.C,C21*%
X6200000Y-22750000D03*
X9800000Y-22750000D03*
%TD*%
D12*
%TO.C,U9*%
X50700000Y-50400000D03*
X50200000Y-50400000D03*
X49700000Y-50400000D03*
X49700000Y-51800000D03*
X50700000Y-51800000D03*
%TD*%
D13*
%TO.C,D10*%
X29600000Y-17362500D03*
X29600000Y-19237500D03*
%TD*%
D14*
%TO.C,J2*%
X20900000Y-8000000D03*
X19900000Y-8000000D03*
X18900000Y-8000000D03*
X17900000Y-8000000D03*
D15*
X22200000Y-10525000D03*
X16600000Y-10525000D03*
%TD*%
D16*
%TO.C,D4*%
X19085000Y-4050000D03*
X19085000Y-5150000D03*
X20915000Y-5150000D03*
X20915000Y-4050000D03*
%TD*%
D12*
%TO.C,U3*%
X9200000Y-50250000D03*
X8700000Y-50250000D03*
X8200000Y-50250000D03*
X8200000Y-51650000D03*
X9200000Y-51650000D03*
%TD*%
D17*
%TO.C,R21*%
X48287500Y-17700000D03*
X50112500Y-17700000D03*
%TD*%
D18*
%TO.C,FID1*%
X58000000Y-59000000D03*
%TD*%
D17*
%TO.C,R16*%
X9087500Y-10000000D03*
X10912500Y-10000000D03*
%TD*%
D19*
%TO.C,R10*%
X31000000Y-12012500D03*
X31000000Y-10187500D03*
%TD*%
D17*
%TO.C,R22*%
X48287500Y-19900000D03*
X50112500Y-19900000D03*
%TD*%
D20*
%TO.C,R2*%
X36100000Y-58687500D03*
X36100000Y-60512500D03*
%TD*%
D21*
%TO.C,U11*%
X21802500Y-17275000D03*
X21802500Y-16640000D03*
X21802500Y-16005000D03*
X21802500Y-15370000D03*
X21802500Y-14735000D03*
X21802500Y-14100000D03*
X21802500Y-13465000D03*
X21802500Y-12830000D03*
X16602500Y-12830000D03*
X16602500Y-13465000D03*
X16602500Y-14100000D03*
X16602500Y-14735000D03*
X16602500Y-15370000D03*
X16602500Y-16005000D03*
X16602500Y-16640000D03*
X16602500Y-17275000D03*
%TD*%
D20*
%TO.C,R5*%
X56000000Y-58587500D03*
X56000000Y-60412500D03*
%TD*%
%TO.C,R1*%
X16000000Y-58700000D03*
X16000000Y-60525000D03*
%TD*%
D12*
%TO.C,U10*%
X47300000Y-50400000D03*
X46800000Y-50400000D03*
X46300000Y-50400000D03*
X46300000Y-51800000D03*
X47300000Y-51800000D03*
%TD*%
D22*
%TO.C,JP1*%
X59500000Y-29095000D03*
D23*
X59500000Y-31635000D03*
%TD*%
D17*
%TO.C,R23*%
X48287500Y-21900000D03*
X50112500Y-21900000D03*
%TD*%
D24*
%TO.C,C10*%
X30750000Y-31700000D03*
X28850000Y-31700000D03*
%TD*%
D13*
%TO.C,D6*%
X35000000Y-17362500D03*
X35000000Y-19237500D03*
%TD*%
D24*
%TO.C,C20*%
X14250000Y-16050000D03*
X12350000Y-16050000D03*
%TD*%
%TO.C,C15*%
X14350000Y-13900000D03*
X12450000Y-13900000D03*
%TD*%
D22*
%TO.C,J4*%
X57875000Y-40425000D03*
D23*
X55335000Y-40425000D03*
X57875000Y-37885000D03*
X55335000Y-37885000D03*
X57875000Y-35345000D03*
X55335000Y-35345000D03*
%TD*%
D25*
%TO.C,SW2*%
X52432500Y-5900000D03*
D26*
X52432500Y-8440000D03*
X52432500Y-10980000D03*
X52432500Y-13520000D03*
X52432500Y-16060000D03*
X52432500Y-18600000D03*
X52432500Y-21140000D03*
X52432500Y-23680000D03*
X60052500Y-23680000D03*
X60052500Y-21140000D03*
X60052500Y-18600000D03*
X60052500Y-16060000D03*
X60052500Y-13520000D03*
X60052500Y-10980000D03*
X60052500Y-8440000D03*
X60052500Y-5900000D03*
%TD*%
D27*
%TO.C,SW1*%
X5780000Y-26350000D03*
X3570000Y-26350000D03*
D28*
X4670000Y-28500000D03*
X4670000Y-31500000D03*
D27*
X5780000Y-33650000D03*
X3570000Y-33650000D03*
D29*
X6430000Y-27750000D03*
X6430000Y-30750000D03*
X6430000Y-32250000D03*
%TD*%
D30*
%TO.C,C12*%
X29600000Y-38150000D03*
X29600000Y-40050000D03*
%TD*%
D19*
%TO.C,R8*%
X35000000Y-12012500D03*
X35000000Y-10187500D03*
%TD*%
D31*
%TO.C,H4*%
X58000000Y0D03*
%TD*%
D12*
%TO.C,U4*%
X5000000Y-50300000D03*
X4500000Y-50300000D03*
X4000000Y-50300000D03*
X4000000Y-51700000D03*
X5000000Y-51700000D03*
%TD*%
D17*
%TO.C,R24*%
X48287500Y-24100000D03*
X50112500Y-24100000D03*
%TD*%
D32*
%TO.C,TP1*%
X20700000Y-19100000D03*
%TD*%
D30*
%TO.C,C11*%
X37500000Y-41850000D03*
X37500000Y-43750000D03*
%TD*%
D19*
%TO.C,R9*%
X33000000Y-12012500D03*
X33000000Y-10187500D03*
%TD*%
%TO.C,R7*%
X35600000Y-15612500D03*
X35600000Y-13787500D03*
%TD*%
D17*
%TO.C,R15*%
X9087500Y-12000000D03*
X10912500Y-12000000D03*
%TD*%
D13*
%TO.C,D7*%
X33600000Y-13762500D03*
X33600000Y-15637500D03*
%TD*%
D33*
%TO.C,R13*%
X412500Y-4000000D03*
X-1412500Y-4000000D03*
%TD*%
%TO.C,R20*%
X50112500Y-14900000D03*
X48287500Y-14900000D03*
%TD*%
%TO.C,R17*%
X50112500Y-7500000D03*
X48287500Y-7500000D03*
%TD*%
D16*
%TO.C,D13*%
X9335000Y-4050000D03*
X9335000Y-5150000D03*
X11165000Y-5150000D03*
X11165000Y-4050000D03*
%TD*%
D34*
%TO.C,D1*%
X16000000Y-57037500D03*
X16000000Y-55162500D03*
%TD*%
D33*
%TO.C,R25*%
X30112500Y-25600000D03*
X28287500Y-25600000D03*
%TD*%
D12*
%TO.C,U7*%
X24250000Y-50330000D03*
X23750000Y-50330000D03*
X23250000Y-50330000D03*
X23250000Y-51730000D03*
X24250000Y-51730000D03*
%TD*%
D33*
%TO.C,R18*%
X50112500Y-9900000D03*
X48287500Y-9900000D03*
%TD*%
D17*
%TO.C,R26*%
X28287500Y-23400000D03*
X30112500Y-23400000D03*
%TD*%
D32*
%TO.C,TP2*%
X26300000Y-19600000D03*
%TD*%
D35*
%TO.C,Y1*%
X44575000Y-42000000D03*
X42825000Y-42000000D03*
X42825000Y-43400000D03*
X44575000Y-43400000D03*
%TD*%
D36*
%TO.C,C17*%
X7000000Y-9450000D03*
X7000000Y-7550000D03*
%TD*%
D37*
%TO.C,J5*%
X600000Y-7610000D03*
X600000Y-13390000D03*
D38*
X2045000Y-7250000D03*
X2045000Y-8050000D03*
D39*
X2045000Y-9250000D03*
X2045000Y-10250000D03*
X2045000Y-10750000D03*
X2045000Y-11750000D03*
D38*
X2045000Y-12950000D03*
X2045000Y-13750000D03*
X2045000Y-13750000D03*
X2045000Y-12950000D03*
D39*
X2045000Y-12250000D03*
X2045000Y-11250000D03*
X2045000Y-9750000D03*
X2045000Y-8750000D03*
D38*
X2045000Y-8050000D03*
X2045000Y-7250000D03*
D40*
X1130000Y-6180000D03*
D41*
X-3050000Y-6180000D03*
D40*
X1130000Y-14820000D03*
D41*
X-3050000Y-14820000D03*
%TD*%
D33*
%TO.C,R6*%
X34325000Y-7900000D03*
X32500000Y-7900000D03*
%TD*%
D18*
%TO.C,FID3*%
X39400000Y-7700000D03*
%TD*%
D31*
%TO.C,H1*%
X0Y0D03*
%TD*%
D16*
%TO.C,D12*%
X12585000Y-4050000D03*
X12585000Y-5150000D03*
X14415000Y-5150000D03*
X14415000Y-4050000D03*
%TD*%
D33*
%TO.C,R3*%
X56725000Y-30500000D03*
X54900000Y-30500000D03*
%TD*%
D19*
%TO.C,R12*%
X27000000Y-12012500D03*
X27000000Y-10187500D03*
%TD*%
D42*
%TO.C,U1*%
X32800000Y-26250000D03*
X32800000Y-26750000D03*
X32800000Y-27250000D03*
X32800000Y-27750000D03*
X32800000Y-28250000D03*
X32800000Y-28750000D03*
X32800000Y-29250000D03*
X32800000Y-29750000D03*
X32800000Y-30250000D03*
X32800000Y-30750000D03*
X32800000Y-31250000D03*
X32800000Y-31750000D03*
X32800000Y-32250000D03*
X32800000Y-32750000D03*
X32800000Y-33250000D03*
X32800000Y-33750000D03*
X32800000Y-34250000D03*
X32800000Y-34750000D03*
X32800000Y-35250000D03*
X32800000Y-35750000D03*
D43*
X34750000Y-37700000D03*
X35250000Y-37700000D03*
X35750000Y-37700000D03*
X36250000Y-37700000D03*
X36750000Y-37700000D03*
X37250000Y-37700000D03*
X37750000Y-37700000D03*
X38250000Y-37700000D03*
X38750000Y-37700000D03*
X39250000Y-37700000D03*
X39750000Y-37700000D03*
X40250000Y-37700000D03*
X40750000Y-37700000D03*
X41250000Y-37700000D03*
X41750000Y-37700000D03*
X42250000Y-37700000D03*
X42750000Y-37700000D03*
X43250000Y-37700000D03*
X43750000Y-37700000D03*
X44250000Y-37700000D03*
D42*
X46200000Y-35750000D03*
X46200000Y-35250000D03*
X46200000Y-34750000D03*
X46200000Y-34250000D03*
X46200000Y-33750000D03*
X46200000Y-33250000D03*
X46200000Y-32750000D03*
X46200000Y-32250000D03*
X46200000Y-31750000D03*
X46200000Y-31250000D03*
X46200000Y-30750000D03*
X46200000Y-30250000D03*
X46200000Y-29750000D03*
X46200000Y-29250000D03*
X46200000Y-28750000D03*
X46200000Y-28250000D03*
X46200000Y-27750000D03*
X46200000Y-27250000D03*
X46200000Y-26750000D03*
X46200000Y-26250000D03*
D43*
X44250000Y-24300000D03*
X43750000Y-24300000D03*
X43250000Y-24300000D03*
X42750000Y-24300000D03*
X42250000Y-24300000D03*
X41750000Y-24300000D03*
X41250000Y-24300000D03*
X40750000Y-24300000D03*
X40250000Y-24300000D03*
X39750000Y-24300000D03*
X39250000Y-24300000D03*
X38750000Y-24300000D03*
X38250000Y-24300000D03*
X37750000Y-24300000D03*
X37250000Y-24300000D03*
X36750000Y-24300000D03*
X36250000Y-24300000D03*
X35750000Y-24300000D03*
X35250000Y-24300000D03*
X34750000Y-24300000D03*
%TD*%
D44*
%TO.C,Connector_X1*%
X5400000Y-56275000D03*
X6400000Y-56275000D03*
X7400000Y-56275000D03*
X8400000Y-56275000D03*
X9400000Y-56275000D03*
X10400000Y-56275000D03*
X11400000Y-56275000D03*
X12400000Y-56275000D03*
D45*
X4100000Y-60175000D03*
X13700000Y-60175000D03*
%TD*%
D30*
%TO.C,C19*%
X9250000Y-31050000D03*
X9250000Y-32950000D03*
%TD*%
D19*
%TO.C,R11*%
X29000000Y-12012500D03*
X29000000Y-10187500D03*
%TD*%
D33*
%TO.C,R19*%
X50112500Y-12300000D03*
X48287500Y-12300000D03*
%TD*%
D34*
%TO.C,D3*%
X56100000Y-56837500D03*
X56100000Y-54962500D03*
%TD*%
D13*
%TO.C,D9*%
X31000000Y-13762500D03*
X31000000Y-15637500D03*
%TD*%
D46*
%TO.C,U12*%
X16700000Y-29650000D03*
X19000000Y-29650000D03*
D47*
X19000000Y-23350000D03*
D46*
X21300000Y-29650000D03*
%TD*%
D48*
%TO.C,L1*%
X27500000Y-38706250D03*
X27500000Y-40831250D03*
%TD*%
D18*
%TO.C,FID2*%
X0Y-59000000D03*
%TD*%
D13*
%TO.C,D11*%
X28400000Y-13762500D03*
X28400000Y-15637500D03*
%TD*%
D34*
%TO.C,D2*%
X36100000Y-57037500D03*
X36100000Y-55162500D03*
%TD*%
D44*
%TO.C,Connector_Y1*%
X25400000Y-56275000D03*
X26400000Y-56275000D03*
X27400000Y-56275000D03*
X28400000Y-56275000D03*
X29400000Y-56275000D03*
X30400000Y-56275000D03*
X31400000Y-56275000D03*
X32400000Y-56275000D03*
D45*
X24100000Y-60175000D03*
X33700000Y-60175000D03*
%TD*%
D49*
%TO.C,C13*%
X41200000Y-43625000D03*
X41200000Y-45175000D03*
%TD*%
D36*
%TO.C,C6*%
X40000000Y-20650000D03*
X40000000Y-18750000D03*
%TD*%
D24*
%TO.C,C18*%
X4450000Y-17000000D03*
X2550000Y-17000000D03*
%TD*%
D13*
%TO.C,D8*%
X32400000Y-17362500D03*
X32400000Y-19237500D03*
%TD*%
D20*
%TO.C,R14*%
X7500000Y-16500000D03*
X7500000Y-18325000D03*
%TD*%
D24*
%TO.C,C22*%
X18950000Y-20700000D03*
X17050000Y-20700000D03*
%TD*%
D50*
%TO.C,FB1*%
X3000000Y-19037500D03*
X3000000Y-21962500D03*
%TD*%
D49*
%TO.C,C14*%
X46200000Y-41925000D03*
X46200000Y-43475000D03*
%TD*%
D30*
%TO.C,C16*%
X7000000Y-12050000D03*
X7000000Y-13950000D03*
%TD*%
D44*
%TO.C,Connector_Z1*%
X45400000Y-56275000D03*
X46400000Y-56275000D03*
X47400000Y-56275000D03*
X48400000Y-56275000D03*
X49400000Y-56275000D03*
X50400000Y-56275000D03*
X51400000Y-56275000D03*
X52400000Y-56275000D03*
D45*
X44100000Y-60175000D03*
X53700000Y-60175000D03*
%TD*%
D30*
%TO.C,C5*%
X56000000Y-26900000D03*
X56000000Y-28800000D03*
%TD*%
D31*
%TO.C,H2*%
X0Y-49000000D03*
%TD*%
D16*
%TO.C,D5*%
X15835000Y-4050000D03*
X15835000Y-5150000D03*
X17665000Y-5150000D03*
X17665000Y-4050000D03*
%TD*%
D51*
%TO.C,J6*%
X2325000Y-37100000D03*
X2325000Y-38100000D03*
D52*
X-1575000Y-35800000D03*
X-1575000Y-39400000D03*
%TD*%
D53*
%TO.C,F1*%
X9200000Y-27200000D03*
X12000000Y-27200000D03*
%TD*%
D17*
%TO.C,R4*%
X54900000Y-32500000D03*
X56725000Y-32500000D03*
%TD*%
D22*
%TO.C,J1*%
X44750000Y-4700000D03*
D23*
X42210000Y-4700000D03*
X39670000Y-4700000D03*
X37130000Y-4700000D03*
X34590000Y-4700000D03*
X32050000Y-4700000D03*
X29510000Y-4700000D03*
X26970000Y-4700000D03*
X24430000Y-4700000D03*
%TD*%
D31*
%TO.C,H3*%
X58000000Y-49000000D03*
%TD*%
D30*
%TO.C,C9*%
X50000000Y-29150000D03*
X50000000Y-31050000D03*
%TD*%
D12*
%TO.C,U6*%
X28450000Y-50330000D03*
X27950000Y-50330000D03*
X27450000Y-50330000D03*
X27450000Y-51730000D03*
X28450000Y-51730000D03*
%TD*%
D22*
%TO.C,J8*%
X4900000Y-1290000D03*
D23*
X4900000Y1250000D03*
X7440000Y-1290000D03*
X7440000Y1250000D03*
X9980000Y-1290000D03*
X9980000Y1250000D03*
X12520000Y-1290000D03*
X12520000Y1250000D03*
X15060000Y-1290000D03*
X15060000Y1250000D03*
X17600000Y-1290000D03*
X17600000Y1250000D03*
X20140000Y-1290000D03*
X20140000Y1250000D03*
X22680000Y-1290000D03*
X22680000Y1250000D03*
X25220000Y-1290000D03*
X25220000Y1250000D03*
X27760000Y-1290000D03*
X27760000Y1250000D03*
X30300000Y-1290000D03*
X30300000Y1250000D03*
X32840000Y-1290000D03*
X32840000Y1250000D03*
X35380000Y-1290000D03*
X35380000Y1250000D03*
X37920000Y-1290000D03*
X37920000Y1250000D03*
X40460000Y-1290000D03*
X40460000Y1250000D03*
X43000000Y-1290000D03*
X43000000Y1250000D03*
X45540000Y-1290000D03*
X45540000Y1250000D03*
X48080000Y-1290000D03*
X48080000Y1250000D03*
X50620000Y-1290000D03*
X50620000Y1250000D03*
X53160000Y-1290000D03*
X53160000Y1250000D03*
%TD*%
M02*
